<svg class="animated" id="freepik_stories-kissing" xmlns="http://www.w3.org/2000/svg" viewBox="0 0 500 500" version="1.1" xmlns:xlink="http://www.w3.org/1999/xlink" xmlns:svgjs="http://svgjs.com/svgjs"><style>svg#freepik_stories-kissing:not(.animated) .animable {opacity: 0;}svg#freepik_stories-kissing.animated #freepik--Hearts--inject-17 {animation: 6s Infinite  linear heartbeat;animation-delay: 0s;}svg#freepik_stories-kissing.animated #freepik--Characters--inject-17 {animation: 6s Infinite  linear floating;animation-delay: 0s;}            @keyframes heartbeat {                0% {                    transform: scale(1);                }                10% {                    transform: scale(1.1);                }                30% {                    transform: scale(1);                }                40% {                    transform: scale(1);                }                50% {                    transform: scale(1.1);                }                60% {                    transform: scale(1);                }                100% {                    transform: scale(1);                }            }                    @keyframes floating {                0% {                    opacity: 1;                    transform: translateY(0px);                }                50% {                    transform: translateY(-10px);                }                100% {                    opacity: 1;                    transform: translateY(0px);                }            }        </style><g id="freepik--Floor--inject-17" class="animable" style="transform-origin: 250px 475.1px;"><path d="M473.67,475.1c0,.14-100.15.26-223.66.26s-223.68-.12-223.68-.26,100.13-.26,223.68-.26S473.67,475,473.67,475.1Z" style="fill: rgb(38, 50, 56); transform-origin: 250px 475.1px;" id="elqgc63k5sf0m" class="animable"></path></g><g id="freepik--Plant--inject-17" class="animable" style="transform-origin: 87.72px 376.115px;"><path d="M127.34,282c-10,5.21-17.75,14.17-23.29,24s-9.11,20.69-12.65,31.44l-3.09,55.44C100,373,109.38,349.63,111.92,326.7l-7.78-.69c5.21-.8,9.59-4.58,12.38-9.06s4.22-9.65,5.62-14.74l-9.49,1.41A35.16,35.16,0,0,0,127.34,282Z" style="fill: rgb(69, 90, 100); transform-origin: 107.825px 337.44px;" id="elf6z1jff3trm" class="animable"></path><g id="el7y4bet1sw65"><g style="opacity: 0.3; transform-origin: 107.825px 337.44px;" class="animable"><path d="M127.34,282c-10,5.21-17.75,14.17-23.29,24s-9.11,20.69-12.65,31.44l-3.09,55.44C100,373,109.38,349.63,111.92,326.7l-7.78-.69c5.21-.8,9.59-4.58,12.38-9.06s4.22-9.65,5.62-14.74l-9.49,1.41A35.16,35.16,0,0,0,127.34,282Z" id="elflyv3awkb0e" class="animable" style="transform-origin: 107.825px 337.44px;"></path></g></g><path d="M86.58,405.89S61.2,375.52,61.49,346.53H71.74S60.61,339.2,61.49,335.1s1.17-19.62,1.17-19.62L72,317.82s-7-3.51-7.91-9.08,2.05-31.34,2.05-31.34,11.42,12,14.94,24.31,12.74,26.66,10,64.15S86.58,405.89,86.58,405.89Z" style="fill: rgb(69, 90, 100); transform-origin: 76.5109px 341.645px;" id="elnt4i2zp55c" class="animable"></path><path d="M99.44,408.76s27.49-18.31,33.6-41.69l-8.24-2.24s10.55-3.45,10.74-6.94,3.35-16,3.35-16l-8-.16s6.42-1.29,8.34-5.57,5.21-25.65,5.21-25.65-11.81,7.16-17.33,16.28S111,345.39,105,376.12,99.44,408.76,99.44,408.76Z" style="fill: rgb(69, 90, 100); transform-origin: 121.936px 359.635px;" id="eleof1xu4jh0r" class="animable"></path><path d="M73.11,303.89a1.12,1.12,0,0,1,.09.31c.06.24.13.55.23.94.19.85.46,2.06.81,3.6s.76,3.48,1.21,5.72,1,4.77,1.49,7.59c1.09,5.63,2.24,12.36,3.42,19.86s2.29,15.75,3.3,24.44,1.77,17,2.37,24.57,1,14.38,1.2,20.11c.14,2.87.2,5.46.27,7.74s.12,4.23.13,5.84,0,2.81,0,3.69v1a1.19,1.19,0,0,1,0,.33,1.39,1.39,0,0,1,0-.33c0-.24,0-.56,0-1,0-.88-.08-2.11-.13-3.69s-.11-3.56-.22-5.83-.19-4.87-.35-7.73c-.27-5.73-.73-12.54-1.31-20.09s-1.41-15.85-2.4-24.55S81,349.47,79.89,342s-2.27-14.23-3.31-19.86c-.49-2.83-1-5.37-1.42-7.61s-.8-4.16-1.12-5.73l-.72-3.62c-.07-.4-.12-.71-.17-1A1.92,1.92,0,0,1,73.11,303.89Z" style="fill: rgb(38, 50, 56); transform-origin: 80.3757px 366.76px;" id="eljx6n6spebe" class="animable"></path><path d="M83.06,424.49s-23.23-26.34-30.44-42.27l5.45-2.33c-4,.65-8-1-11-3.62s-5.31-6-7.51-9.3l7.17-1.21A26.65,26.65,0,0,1,31,353.62c8.46,1.39,16.12,6,22.43,11.85A112.27,112.27,0,0,1,67,381.22a54.4,54.4,0,0,1,5.28,8.67C76.21,398,83.07,414.82,83.06,424.49Z" style="fill: rgb(69, 90, 100); transform-origin: 57.03px 389.055px;" id="elzoc0d6djui" class="animable"></path><path d="M133.41,325.81a1,1,0,0,1-.11.27c-.09.2-.21.45-.35.77l-1.41,2.92c-1.24,2.53-3,6.21-5.14,10.78-4.27,9.13-9.89,21.88-15.45,36.22S101,404.34,98,414c-1.49,4.81-2.66,8.72-3.45,11.43l-.92,3.11c-.11.33-.19.6-.25.81a1,1,0,0,1-.11.27,1.28,1.28,0,0,1,0-.29l.21-.82c.2-.75.47-1.8.83-3.14.72-2.72,1.84-6.65,3.29-11.48,2.9-9.66,7.26-22.91,12.81-37.28s11.24-27.09,15.6-36.19c2.17-4.55,4-8.2,5.29-10.71l1.49-2.88.41-.74A1.16,1.16,0,0,1,133.41,325.81Z" style="fill: rgb(38, 50, 56); transform-origin: 113.336px 377.715px;" id="el9oouqcoq98b" class="animable"></path><path d="M85,435.79a1.77,1.77,0,0,1-.12-.49l-.23-1.4c-.18-1.21-.49-3-.91-5.12s-1-4.7-1.78-7.5-1.75-5.84-2.92-9-2.49-6.06-3.74-8.67-2.52-4.91-3.63-6.81-2-3.41-2.7-4.45c-.3-.47-.54-.87-.75-1.2a2.48,2.48,0,0,1-.23-.44,2.18,2.18,0,0,1,.32.38l.83,1.15c.72,1,1.7,2.49,2.85,4.37s2.43,4.18,3.74,6.79,2.59,5.54,3.79,8.69,2.14,6.22,2.9,9,1.31,5.39,1.68,7.56.63,3.94.75,5.17c.05.56.1,1,.13,1.41A2.38,2.38,0,0,1,85,435.79Z" style="fill: rgb(38, 50, 56); transform-origin: 76.499px 413.25px;" id="elnackglq9l9r" class="animable"></path><rect x="64.84" y="429.59" width="57.17" height="10.37" style="fill: rgb(146, 227, 169); transform-origin: 93.425px 434.775px;" id="elrd4ymr1f8tr" class="animable"></rect><polygon points="70.29 439.96 76.47 474.83 111.02 474.83 116.78 439.96 70.29 439.96" style="fill: rgb(146, 227, 169); transform-origin: 93.535px 457.395px;" id="els9kjcii87u" class="animable"></polygon><path d="M118.51,440c0,.14-10.82.26-24.16.26S70.2,440.1,70.2,440s10.81-.26,24.15-.26S118.51,439.81,118.51,440Z" style="fill: rgb(38, 50, 56); transform-origin: 94.355px 440px;" id="elpqp3q6ccxze" class="animable"></path></g><g id="freepik--Table--inject-17" class="animable" style="transform-origin: 415.72px 361.95px;"><rect x="414.41" y="269.33" width="2.81" height="27.02" style="fill: rgb(38, 50, 56); transform-origin: 415.815px 282.84px;" id="elifj8aymz8no" class="animable"></rect><rect x="398.51" y="303.51" width="34.62" height="64.13" style="fill: rgb(69, 90, 100); transform-origin: 415.82px 335.575px;" id="el3do8hjyydxp" class="animable"></rect><rect x="405.57" y="294.53" width="21.08" height="8.98" style="fill: rgb(69, 90, 100); transform-origin: 416.11px 299.02px;" id="elpzon57eigza" class="animable"></rect><rect x="376.47" y="248.37" width="75.89" height="40.58" style="fill: rgb(224, 224, 224); transform-origin: 414.415px 268.66px;" id="elwe3mdl7fe6k" class="animable"></rect><path d="M452.36,289s0-.26,0-.74,0-1.21,0-2.12c0-1.88,0-4.62-.05-8.12,0-7-.06-17.15-.11-29.6l.21.21-75.89.06h0l.27-.27c0,14.33,0,28.06,0,40.58l-.25-.25,54.51.12,15.71.07,4.2,0,1.09,0h.38l-.35,0H451l-4.15,0-15.65.07-54.68.13h-.26V289c0-12.52,0-26.25,0-40.58v-.27h.27l75.89.07h.2v.2c0,12.51-.08,22.67-.11,29.72,0,3.49,0,6.21-.05,8.08,0,.9,0,1.59,0,2.09S452.36,289,452.36,289Z" style="fill: rgb(38, 50, 56); transform-origin: 414.44px 268.645px;" id="elv5trb3ig1d" class="animable"></path><path d="M433,303.51c0,.15-7.68.27-17.15.27s-17.16-.12-17.16-.27,7.68-.27,17.16-.27S433,303.36,433,303.51Z" style="fill: rgb(38, 50, 56); transform-origin: 415.845px 303.51px;" id="elxl4d68pi1s" class="animable"></path><rect x="361.3" y="367.44" width="105.62" height="34.8" style="fill: rgb(174, 116, 97); transform-origin: 414.11px 384.84px;" id="eljckn5anhyuc" class="animable"></rect><path d="M463.08,399.53s0-.18,0-.52,0-.86,0-1.5c0-1.33,0-3.27,0-5.78,0-5-.06-12.36-.1-21.58l.18.18-97.93.1h0l.29-.28c0,10.16,0,20,0,29.38l-.28-.28,70,.13,20.52.08,5.52,0,1.44,0,.5,0-.46,0h-1.41l-5.46,0-20.46.08-70.15.13h-.28V369.86h.3l97.93.11h.19v.18c0,9.27-.07,16.63-.1,21.69,0,2.49,0,4.41,0,5.74,0,.63,0,1.11,0,1.46S463.08,399.53,463.08,399.53Z" style="fill: rgb(38, 50, 56); transform-origin: 414.21px 384.765px;" id="elbwf4vhu8yxk" class="animable"></path><polygon points="365.13 475.72 372.76 402.24 383 402.24 371.08 475.75 365.13 475.72" style="fill: rgb(174, 116, 97); transform-origin: 374.065px 438.995px;" id="elwddmwvrfn0a" class="animable"></polygon><polygon points="470.27 475.7 458.81 402.24 448.57 402.24 464.32 475.74 470.27 475.7" style="fill: rgb(174, 116, 97); transform-origin: 459.42px 438.99px;" id="eletulwyxi4o" class="animable"></polygon><rect x="372.03" y="440.46" width="88.88" height="7.92" style="fill: rgb(174, 116, 97); transform-origin: 416.47px 444.42px;" id="elpu1dwp12rn" class="animable"></rect><path d="M407.3,370.15a6.81,6.81,0,0,0,13.62,0Z" style="fill: rgb(38, 50, 56); transform-origin: 414.11px 373.555px;" id="elc7zuuzypix" class="animable"></path><path d="M465.17,402.35c0,.16-23.29.28-52,.28s-52-.12-52-.28,23.28-.29,52-.29S465.17,402.19,465.17,402.35Z" style="fill: rgb(38, 50, 56); transform-origin: 413.17px 402.345px;" id="elev0hcn7tal4" class="animable"></path></g><g id="freepik--Stars--inject-17" class="animable" style="transform-origin: 254.084px 164.835px;"><path d="M178.87,113.82l1.58.91a.39.39,0,0,1,0,.69l-1.62.84a.35.35,0,0,0-.16.16l-.91,1.59a.39.39,0,0,1-.69,0l-.85-1.62a.46.46,0,0,0-.15-.16l-1.59-.91a.39.39,0,0,1,0-.69l1.62-.85a.33.33,0,0,0,.16-.15l.91-1.59a.4.4,0,0,1,.69,0l.85,1.63A.49.49,0,0,0,178.87,113.82Z" style="fill: rgb(146, 227, 169); transform-origin: 177.465px 115.03px;" id="elbmyyi9oovjp" class="animable"></path><path d="M312.49,229.28l1.59.91a.4.4,0,0,1,0,.69l-1.63.85a.46.46,0,0,0-.16.15l-.91,1.59a.4.4,0,0,1-.69,0l-.84-1.63a.49.49,0,0,0-.16-.16l-1.59-.91a.39.39,0,0,1,0-.69l1.62-.84a.41.41,0,0,0,.16-.16l.91-1.59a.39.39,0,0,1,.69,0l.85,1.62A.39.39,0,0,0,312.49,229.28Z" style="fill: rgb(146, 227, 169); transform-origin: 311.085px 230.475px;" id="el2qkpirxi11n" class="animable"></path><path d="M295.47,63.27l1.59.91a.39.39,0,0,1,0,.69l-1.62.85a.39.39,0,0,0-.16.15l-.91,1.59a.4.4,0,0,1-.69,0l-.85-1.63a.46.46,0,0,0-.15-.16l-1.59-.91a.4.4,0,0,1,0-.69l1.63-.84a.49.49,0,0,0,.16-.16l.91-1.59a.39.39,0,0,1,.69,0l.84,1.62A.41.41,0,0,0,295.47,63.27Z" style="fill: rgb(146, 227, 169); transform-origin: 294.08px 64.4647px;" id="elg112p5fdo8c" class="animable"></path><path d="M185.25,264l1.59.9a.4.4,0,0,1,0,.7l-1.62.84a.41.41,0,0,0-.16.16l-.91,1.59a.39.39,0,0,1-.69,0l-.85-1.62a.39.39,0,0,0-.15-.16l-1.59-.91a.4.4,0,0,1,0-.69l1.63-.85a.46.46,0,0,0,.16-.15l.91-1.59a.4.4,0,0,1,.69,0l.84,1.63A.49.49,0,0,0,185.25,264Z" style="fill: rgb(146, 227, 169); transform-origin: 183.859px 265.21px;" id="elgmr0mkclq5" class="animable"></path><path d="M189,127.66l.81.46a.21.21,0,0,1,0,.36l-.82.43a.14.14,0,0,0-.08.07l-.47.81a.2.2,0,0,1-.35,0l-.43-.82a.18.18,0,0,0-.07-.08l-.81-.46a.2.2,0,0,1,0-.35l.82-.43a.3.3,0,0,0,.08-.08l.46-.81a.2.2,0,0,1,.35,0l.43.82A.2.2,0,0,0,189,127.66Z" style="fill: rgb(146, 227, 169); transform-origin: 188.294px 128.275px;" id="elvzzvon4ubdr" class="animable"></path><path d="M333,142.7l.79.46a.19.19,0,0,1,0,.34l-.81.42a.2.2,0,0,0-.08.08l-.46.8a.19.19,0,0,1-.34,0l-.43-.81a.14.14,0,0,0-.07-.08l-.8-.46a.19.19,0,0,1,0-.34l.81-.43a.18.18,0,0,0,.08-.07l.45-.8a.2.2,0,0,1,.35,0l.42.81Z" style="fill: rgb(146, 227, 169); transform-origin: 332.295px 143.306px;" id="else5se5wjxoo" class="animable"></path></g><g id="freepik--Hearts--inject-17" class="animable animator-active" style="transform-origin: 251.811px 160.13px;"><path d="M150.44,142.26a7.58,7.58,0,0,0-.72-2.8,9.09,9.09,0,0,0-5.56-4.91,6.85,6.85,0,0,0-5.3.82,6.75,6.75,0,0,0-2.25,2.35,6.72,6.72,0,0,0-1.92-2.25,6.81,6.81,0,0,0-5.22-1.25,9.12,9.12,0,0,0-5.94,4.45,7.77,7.77,0,0,0-.94,2.73,10.56,10.56,0,0,0,1,6.5,15,15,0,0,0,5,5c3.29,2.16,7.61,4.88,7.61,4.88s3.86-2.65,7.31-4.54a15.12,15.12,0,0,0,5.35-4.62A10.57,10.57,0,0,0,150.44,142.26Z" style="fill: rgb(146, 227, 169); transform-origin: 136.458px 145.951px;" id="elpz0hnf9yif" class="animable"></path><path d="M381.15,77.06a6.25,6.25,0,0,0-1.48-3.49,6,6,0,0,0-3.08-2.07,4.89,4.89,0,0,0-5.49,2.3,4.89,4.89,0,0,0-1.39-1.64,5,5,0,0,0-3.8-.9,6.06,6.06,0,0,0-3.24,1.82,6.26,6.26,0,0,0-1.75,3.36,7.67,7.67,0,0,0,.76,4.76,11,11,0,0,0,3.6,3.66c2.39,1.57,5.54,3.55,5.54,3.55s2.8-1.93,5.3-3.3A10.89,10.89,0,0,0,380,81.75,7.71,7.71,0,0,0,381.15,77.06Z" style="fill: rgb(146, 227, 169); transform-origin: 370.997px 79.7995px;" id="eloc3u02f2eyb" class="animable"></path><path d="M368.65,230.27a10.47,10.47,0,0,0-2.45-5.8,10.14,10.14,0,0,0-5.12-3.44,8.12,8.12,0,0,0-9.1,3.82,8.12,8.12,0,0,0-8.61-4.21,10,10,0,0,0-5.37,3,10.44,10.44,0,0,0-2.92,5.58,12.76,12.76,0,0,0,1.27,7.9,18,18,0,0,0,6,6.07c4,2.61,9.18,5.88,9.18,5.88s4.65-3.19,8.81-5.47a18,18,0,0,0,6.44-5.57A12.69,12.69,0,0,0,368.65,230.27Z" style="fill: rgb(146, 227, 169); transform-origin: 351.806px 234.792px;" id="el8ih9f6vgxo" class="animable"></path></g><g id="freepik--Characters--inject-17" class="animable" style="transform-origin: 250.013px 277.113px;"><path d="M289.31,440.31l3.12,21.93S273,470.53,272.7,474.9l40.27.4V472l-1.63-11.17L309,439.15Z" style="fill: rgb(69, 90, 100); transform-origin: 292.835px 457.225px;" id="elv0aeyzotgt9" class="animable"></path><path d="M306.44,458.55a1.89,1.89,0,0,1,1.16,2.14,1.62,1.62,0,0,1-1.9,1.29,2,2,0,0,1-1.21-2.27c.27-.87,1.38-1.54,2.11-1.1" style="fill: rgb(224, 224, 224); transform-origin: 306.043px 460.24px;" id="elm8d27m6514" class="animable"></path><path d="M313,475.3V472l-38.62.56s-1.84.88-1.64,2.32Z" style="fill: rgb(38, 50, 56); transform-origin: 292.862px 473.65px;" id="el1uvutvfktz5" class="animable"></path><path d="M293.64,461.6c0,.22,1,.33,2,1s1.51,1.67,1.69,1.58-.11-1.38-1.32-2.23S293.59,461.4,293.64,461.6Z" style="fill: rgb(38, 50, 56); transform-origin: 295.509px 462.783px;" id="elvj2b1mqfpm" class="animable"></path><path d="M289.31,463.57c-.05.21.82.6,1.5,1.55s.88,1.94,1.08,1.94.33-1.28-.54-2.44S289.31,463.36,289.31,463.57Z" style="fill: rgb(38, 50, 56); transform-origin: 290.672px 465.271px;" id="el7mg4xubrit7" class="animable"></path><path d="M286.83,469.3c.19.05.47-1.06,0-2.29s-1.45-1.72-1.54-1.53.49.84.9,1.86S286.63,469.28,286.83,469.3Z" style="fill: rgb(38, 50, 56); transform-origin: 286.184px 467.371px;" id="el2wk76wtzmug" class="animable"></path><path d="M292.24,456.37c.08.21,1-.1,2.14,0s2,.49,2.13.3-.74-1-2.09-1.07S292.14,456.2,292.24,456.37Z" style="fill: rgb(38, 50, 56); transform-origin: 294.378px 456.158px;" id="elvkl34q5biw" class="animable"></path><path d="M232.19,142.25,218.08,98.93c-3.86-10.66-.88-21.8,9.89-25.36l1-.27a20.25,20.25,0,0,1,24.34,12.78c3.3,9.26,6.82,19.53,8.12,24.63,2.68,10.54-7.4,15-7.4,15s1.91,6.33,2.87,9.38l1.66,7.34-6.19-.39Z" style="fill: rgb(255, 191, 157); transform-origin: 239.175px 107.518px;" id="el41veeo7xozy" class="animable"></path><path d="M253.93,125.34a26.32,26.32,0,0,1-14.77-.38s5.41,7,15.65,3.27Z" style="fill: rgb(255, 154, 108); transform-origin: 246.985px 127.142px;" id="el24ve5mik6hx" class="animable"></path><path d="M247.47,96.59c.07-.27,1.52-.06,3-.86s2.15-2.12,2.4-2,.13.45-.16,1a4.27,4.27,0,0,1-1.81,1.84,4.13,4.13,0,0,1-2.5.47C247.75,97,247.42,96.71,247.47,96.59Z" style="fill: rgb(38, 50, 56); transform-origin: 250.235px 95.3979px;" id="elp8as0g5ts5" class="animable"></path><path d="M232.86,101.5c.1-.26,1.53,0,3-.64s2.3-2,2.55-1.84.09.45-.24,1a4.25,4.25,0,0,1-1.94,1.7,4.06,4.06,0,0,1-2.53.29C233.12,101.89,232.81,101.62,232.86,101.5Z" style="fill: rgb(38, 50, 56); transform-origin: 235.694px 100.551px;" id="elx2c50nae85" class="animable"></path><path d="M245.6,106.43a11.21,11.21,0,0,1,2.5-1.17c.4-.15.77-.34.76-.64a2.16,2.16,0,0,0-.6-1.15c-.66-.89-1.34-1.83-2.06-2.81-2.89-4-5.1-7.37-4.94-7.49s2.64,3,5.53,7.07l2,2.85a2.37,2.37,0,0,1,.65,1.56,1.05,1.05,0,0,1-.52.78,2.66,2.66,0,0,1-.67.29A11,11,0,0,1,245.6,106.43Z" style="fill: rgb(38, 50, 56); transform-origin: 245.346px 99.7983px;" id="elfv6bdk71ft7" class="animable"></path><path d="M235.66,90.38c-.11.47-1.8.46-3.71.93s-3.44,1.19-3.74.81c-.14-.18.08-.63.66-1.15a6.67,6.67,0,0,1,5.68-1.33C235.3,89.85,235.7,90.16,235.66,90.38Z" style="fill: rgb(38, 50, 56); transform-origin: 231.916px 90.8511px;" id="el9ayq683qmcq" class="animable"></path><path d="M251,86.19c-.23.46-1.64.45-3.22.88s-2.84,1.07-3.26.78c-.19-.15-.08-.57.4-1.09a5.37,5.37,0,0,1,2.45-1.34,5.27,5.27,0,0,1,2.78,0C250.83,85.65,251.12,86,251,86.19Z" style="fill: rgb(38, 50, 56); transform-origin: 247.729px 86.5782px;" id="el334inywfn6a" class="animable"></path><path d="M220.91,106.13c-.2,0-7.8-.21-5.64,6.92s8.86,3.49,8.81,3.28S220.91,106.13,220.91,106.13Z" style="fill: rgb(255, 191, 157); transform-origin: 219.482px 111.787px;" id="elptp7qtdgjj" class="animable"></path><path d="M221.09,114.29s-.1.13-.28.28a1.27,1.27,0,0,1-.92.3c-.84,0-1.83-1.05-2.26-2.32a4.41,4.41,0,0,1-.19-1.88,1.5,1.5,0,0,1,.65-1.24.66.66,0,0,1,.83.12c.16.17.16.33.2.33s.12-.17,0-.45a.85.85,0,0,0-.42-.36,1,1,0,0,0-.74,0,1.83,1.83,0,0,0-1,1.5,4.42,4.42,0,0,0,.17,2.11c.48,1.42,1.62,2.54,2.74,2.53a1.41,1.41,0,0,0,1.08-.53C221.13,114.47,221.12,114.3,221.09,114.29Z" style="fill: rgb(255, 154, 108); transform-origin: 219.005px 112.105px;" id="elz31b354vwm" class="animable"></path><path d="M252.07,83s.06,1.64.07,1.64c2,.93,9.05-2.38,7.28-3.71a4.3,4.3,0,0,0-1.15-.63,3,3,0,0,0,3-.11,2.39,2.39,0,0,0,.93-2.74,2,2,0,0,0-1.62-1.2A6.82,6.82,0,0,0,264,74.29a2,2,0,0,0,.59-2.39,1.76,1.76,0,0,0-1.09-.75,5.45,5.45,0,0,0-2.79.36,15.57,15.57,0,0,1-7,.32,7.45,7.45,0,0,0,1.52-1.92,4.68,4.68,0,0,0-.05-4.83,1.05,1.05,0,0,0-.76-.52c-.51,0-.78.57-1,1a4,4,0,0,1-3.17,2.63,6.68,6.68,0,0,1-2.95,0l-.12-.08-1.42-.77h0c-3.48-1.86-6.34-3-9-3.25-3.9-.36-9.89.82-13.24,2.86s-5.72,6-5.11,9.83c-2.55-1.11-5.6-.18-7.78,1.56h-.07c-2.46,1.81-3.16,5.2-3.13,8.26,0,.17,0,.33,0,.5a11.38,11.38,0,0,1-2.63,4.74c-.22.24-.47.52-.41.84s.39.49.69.59a5.67,5.67,0,0,0,2.52.26,13.9,13.9,0,0,1-.34,2.21c-.15.63-.33,1.37.11,1.84a1.2,1.2,0,0,0,1.37.16,3.43,3.43,0,0,0,1.11-1c-.08.83-.17,1.66-.26,2.49a6.75,6.75,0,0,0,3-1.1c1.37,2.46,3.28,7.2,4.49,8.78,1.9-.53,2.3-.87,3.35-.84,1.36,0,1.54,2.36,3,1.26.72-.56,1.05-4,1.07-5a42.43,42.43,0,0,0-3.4-17.76,13.62,13.62,0,0,1,3.16-4.13l-.09.15c2.62-1.89,5.61-3.87,8.79-3.34,2.46.42,4.39,2.27,6.53,3.57a15.57,15.57,0,0,0,12.62,2" style="fill: rgb(38, 50, 56); transform-origin: 234.573px 85.824px;" id="elrfq53j5vy7l" class="animable"></path><path d="M222.09,77a9.06,9.06,0,0,0-.76,1.27,7.85,7.85,0,0,0-.57,4,13.93,13.93,0,0,0,.53,2.73c.29,1,.67,2,1.07,3a28.23,28.23,0,0,1,1.11,3.4,12.58,12.58,0,0,1,.3,1.87,3.87,3.87,0,0,1-.21,2,1.64,1.64,0,0,1-1.32.93,2.38,2.38,0,0,1-1.55-.35,5.58,5.58,0,0,1-1.8-2.35l.22,0A9.11,9.11,0,0,1,218.5,96a3.27,3.27,0,0,1-1.7,1.71,2,2,0,0,1-1.13.13,1.79,1.79,0,0,1-.95-.5,1.9,1.9,0,0,1-.5-.85,1.43,1.43,0,0,1,.09-.92l.14.07A6.93,6.93,0,0,1,212.72,98a5.64,5.64,0,0,1-.62.48,1.08,1.08,0,0,1-.23.14,1.06,1.06,0,0,1,.21-.17c.14-.11.34-.28.58-.51a7.25,7.25,0,0,0,1.65-2.35l.14.06a1.39,1.39,0,0,0,.4,1.57,1.59,1.59,0,0,0,.85.44,1.81,1.81,0,0,0,1-.13,3,3,0,0,0,1.57-1.62,8.55,8.55,0,0,0,.58-2.5l0-.38.18.34a5.51,5.51,0,0,0,1.72,2.25,2.21,2.21,0,0,0,1.38.31,1.38,1.38,0,0,0,1.13-.79,3.71,3.71,0,0,0,.19-1.85,12.26,12.26,0,0,0-.3-1.83,29.09,29.09,0,0,0-1.08-3.38c-.39-1.06-.77-2.07-1-3a14.41,14.41,0,0,1-.51-2.78,7.66,7.66,0,0,1,.66-4A4.34,4.34,0,0,1,222.09,77Z" style="fill: rgb(69, 90, 100); transform-origin: 217.844px 87.81px;" id="elzl6i3dqau0e" class="animable"></path><path d="M257.41,77.51l-.06.09-.21.27a4.82,4.82,0,0,1-.35.42,6.92,6.92,0,0,1-.54.52A9.71,9.71,0,0,1,252,81a12.4,12.4,0,0,1-7-.43,21.59,21.59,0,0,1-7.28-4.62c-1.14-1-2.14-2.14-3.18-3.13a14.29,14.29,0,0,0-3.29-2.48,7.34,7.34,0,0,0-3.55-.92,5.18,5.18,0,0,0-1.64.29,5.91,5.91,0,0,0-1.37.71,6.35,6.35,0,0,0-1.78,2,6.21,6.21,0,0,0-.72,1.88,7.33,7.33,0,0,0-.07,1.73s0,0,0-.11,0-.2,0-.34a5.35,5.35,0,0,1,0-1.29,6.33,6.33,0,0,1,.69-1.94,6.41,6.41,0,0,1,1.81-2,6,6,0,0,1,1.4-.76,5.89,5.89,0,0,1,1.7-.32,7.64,7.64,0,0,1,3.67.93,14.6,14.6,0,0,1,3.35,2.51c1,1,2.06,2.1,3.18,3.13a21.44,21.44,0,0,0,7.19,4.57,12.22,12.22,0,0,0,6.88.49,10,10,0,0,0,4.2-2C257,78,257.38,77.48,257.41,77.51Z" style="fill: rgb(69, 90, 100); transform-origin: 239.745px 75.2918px;" id="elvmf0twz0ufd" class="animable"></path><path d="M257,72.64s-.09.14-.29.37a8.55,8.55,0,0,1-.94.89A11.61,11.61,0,0,1,254.17,75,14.45,14.45,0,0,1,252,76a13.4,13.4,0,0,1-2.3.52,10.9,10.9,0,0,1-1.93.07,8,8,0,0,1-1.29-.15,2.72,2.72,0,0,1-.46-.11s.68.07,1.76.08a13.38,13.38,0,0,0,1.89-.12,14,14,0,0,0,2.25-.54,13.39,13.39,0,0,0,2.12-.93,12.55,12.55,0,0,0,1.59-1C256.49,73.1,257,72.6,257,72.64Z" style="fill: rgb(69, 90, 100); transform-origin: 251.51px 74.6214px;" id="elqdxko8ugcj" class="animable"></path><path d="M264.22,438.93,263,461.86s22.89,9,23.07,13.24l-44.55-.84.49-35.81Z" style="fill: rgb(38, 50, 56); transform-origin: 263.795px 456.775px;" id="elw1zkymgnpgc" class="animable"></path><path d="M249.23,459.67a1.82,1.82,0,0,0-1.3,2.05,1.75,1.75,0,0,0,2,1.31,1.93,1.93,0,0,0,1.36-2.18,1.82,1.82,0,0,0-2.25-1.13" style="fill: rgb(224, 224, 224); transform-origin: 249.612px 461.348px;" id="el1drf79jt1hk" class="animable"></path><path d="M241.48,474.26l.19-3.61,42.65,2.16s2,.9,1.71,2.29Z" style="fill: rgb(69, 90, 100); transform-origin: 263.769px 472.875px;" id="el687qp2onc2v" class="animable"></path><path d="M263.69,461.65c0,.21-1.1.29-2.18,1s-1.67,1.58-1.87,1.49.15-1.34,1.47-2.13S263.74,461.45,263.69,461.65Z" style="fill: rgb(255, 255, 255); transform-origin: 261.64px 462.802px;" id="el32qi3qp988m" class="animable"></path><path d="M268.33,463.67c0,.21-.91.56-1.66,1.47s-1,1.87-1.21,1.86-.33-1.25.63-2.36S268.33,463.46,268.33,463.67Z" style="fill: rgb(255, 255, 255); transform-origin: 266.822px 465.288px;" id="elkk8lrg7pfnr" class="animable"></path><path d="M270.88,469.31c-.2,0-.48-1.05.1-2.23s1.6-1.64,1.69-1.45-.55.8-1,1.78S271.09,469.29,270.88,469.31Z" style="fill: rgb(255, 255, 255); transform-origin: 271.656px 467.449px;" id="elaxgnoz39rke" class="animable"></path><path d="M263.4,456.39c-.1.2-1.09-.12-2.32-.06s-2.2.43-2.31.24.83-.95,2.28-1S263.51,456.22,263.4,456.39Z" style="fill: rgb(255, 255, 255); transform-origin: 261.085px 456.096px;" id="ell0iww5jvrdi" class="animable"></path><path d="M210.28,436.67l-2.41,27.68,4.41,22.44a2.87,2.87,0,0,1-2.44,3.38h0a2.85,2.85,0,0,1-2.45-.9c-4-4.33-18.5-20.33-18.21-22.34.34-2.34.61-29.37.61-29.37Z" style="fill: rgb(38, 50, 56); transform-origin: 200.753px 463.431px;" id="ellf9dtnyvtfo" class="animable"></path><path d="M209.84,490.17,189.3,465.06l-.07,1.17a4.25,4.25,0,0,0,.83,2.84c1.63,2.18,6.26,8.11,17.25,20.2a2.86,2.86,0,0,0,2.53.9Z" style="fill: rgb(69, 90, 100); transform-origin: 199.53px 477.63px;" id="elr13br90sdr" class="animable"></path><g id="ely47q1sbd4y"><g style="opacity: 0.6; transform-origin: 194.588px 457.774px;" class="animable"><path d="M195.57,456.48a1.72,1.72,0,0,1,.32,2.27,1.64,1.64,0,0,1-2.25.34,1.82,1.82,0,0,1-.33-2.41,1.72,1.72,0,0,1,2.38-.09" style="fill: rgb(255, 255, 255); transform-origin: 194.588px 457.774px;" id="el6squcqqfwkd" class="animable"></path></g></g><path d="M204.28,477.64a6.12,6.12,0,0,1,5.8-2.4c0-.07-.31-.31-1-.44a4.54,4.54,0,0,0-4.49,1.86C204.28,477.21,204.21,477.62,204.28,477.64Z" style="fill: rgb(255, 255, 255); transform-origin: 207.168px 476.186px;" id="eljmvtbuviggc" class="animable"></path><path d="M206,481.48a23.92,23.92,0,0,1,2.53-1,24.16,24.16,0,0,1,2.73-.18c.09-.13-1.21-.81-2.87-.42S205.88,481.4,206,481.48Z" style="fill: rgb(255, 255, 255); transform-origin: 208.627px 480.62px;" id="elp4enlrw4k3c" class="animable"></path><path d="M200.91,472.65c.12.14,1.57-1.17,3.8-1.86s4.16-.51,4.17-.7a6.33,6.33,0,0,0-4.36.12C202.14,471,200.78,472.56,200.91,472.65Z" style="fill: rgb(255, 255, 255); transform-origin: 204.891px 471.21px;" id="eljomlczqnpyd" class="animable"></path><path d="M200.94,464.17c.06.17,1.63-.37,3.63-.31s3.55.63,3.62.47-1.46-1.05-3.6-1.08A5.52,5.52,0,0,0,200.94,464.17Z" style="fill: rgb(255, 255, 255); transform-origin: 204.566px 463.79px;" id="elb6l2k9y711h" class="animable"></path><path d="M201.44,456c.08.17,1.68-.66,3.78-.43s3.51,1.31,3.61,1.16-.23-.42-.84-.83a6.17,6.17,0,0,0-5.56-.55C201.75,455.66,201.4,456,201.44,456Z" style="fill: rgb(255, 255, 255); transform-origin: 205.142px 455.837px;" id="els0w54o9ctb" class="animable"></path><path d="M205.27,454.05a2.54,2.54,0,0,0,.1-1.05,7.34,7.34,0,0,0-.66-2.8,3.23,3.23,0,0,0-1.28-1.63,1.16,1.16,0,0,0-1.31.17,1.89,1.89,0,0,0-.52,1.23,4,4,0,0,0,3.29,3.94,4.68,4.68,0,0,0,4.73-2.15,1.65,1.65,0,0,0,.16-1.33,1.12,1.12,0,0,0-1.13-.67,3.93,3.93,0,0,0-1.89.83,8.16,8.16,0,0,0-2,2,2.47,2.47,0,0,0-.49.93A13.08,13.08,0,0,1,207,451a3.64,3.64,0,0,1,1.66-.69.6.6,0,0,1,.62.36,1.13,1.13,0,0,1-.16.88,4.16,4.16,0,0,1-4.12,1.81,3.49,3.49,0,0,1-2.83-3.31,1.33,1.33,0,0,1,.32-.87.63.63,0,0,1,.72-.1,2.92,2.92,0,0,1,1.11,1.36A11,11,0,0,1,205.27,454.05Z" style="fill: rgb(255, 255, 255); transform-origin: 205.726px 451.245px;" id="elk217me62uu" class="animable"></path><path d="M286.29,246.33a98.54,98.54,0,0,1,2.15,29c-.47,6.16-21.28,176.75-21.28,176.75H239.07L247,291.77l-2.3.5s-15.33,68.38-16.58,79.45C227,381.68,214,454,214,454l-25.69.3,8.2-95.63,9.55-91.76,3.59-26.71Z" style="fill: rgb(38, 50, 56); transform-origin: 238.51px 347.25px;" id="elaresw6q6zih" class="animable"></path><path d="M242.53,275.42a6.59,6.59,0,0,0,1.18.66,13.42,13.42,0,0,0,3.48,1.21,7,7,0,0,0,2.58,0,5.22,5.22,0,0,0,2.71-1.3,6.39,6.39,0,0,0,1.64-2.86c.33-1.1.52-2.23.76-3.38.89-4.63,1.5-8.86,1.85-11.92.18-1.54.3-2.78.36-3.64a6.33,6.33,0,0,0,0-1.35,5.14,5.14,0,0,0-.27,1.32c-.15,1-.33,2.18-.55,3.61-.45,3-1.13,7.25-2,11.86-.45,2.28-.76,4.61-2.19,6a5.85,5.85,0,0,1-4.85,1.26,15.69,15.69,0,0,1-3.45-1A6,6,0,0,0,242.53,275.42Z" style="fill: rgb(69, 90, 100); transform-origin: 249.828px 265.125px;" id="eldt1ggoi6516" class="animable"></path><path d="M251,253.67s-.18-.15-.58-.17a2.5,2.5,0,0,0-1.57.51,2.78,2.78,0,0,0-1.18,2.17A2.78,2.78,0,0,0,252.4,258a2.81,2.81,0,0,0,.54-2.41,2.46,2.46,0,0,0-.86-1.41c-.31-.24-.53-.28-.54-.25a3.12,3.12,0,0,1,1,1.74,2.43,2.43,0,0,1-.53,2,2.27,2.27,0,0,1-3.78-1.42,2.42,2.42,0,0,1,.89-1.83A3.22,3.22,0,0,1,251,253.67Z" style="fill: rgb(69, 90, 100); transform-origin: 250.343px 256.151px;" id="el303jno3ijoj" class="animable"></path><path d="M229.71,134.58s-22.53,5.72-27.21,11.47l7.68,54.12-3.81,46.53,62.67-.39V177.74l-7.44-21.82-4.28-22.56C249.74,137.84,240.27,137.58,229.71,134.58Z" style="fill: rgb(69, 90, 100); transform-origin: 235.77px 190.03px;" id="el84g0qipdzbj" class="animable"></path><path d="M232.8,440.42l2,22.09s-23.3,9-23.55,13.45l44,.12,0-3.33-1.85-11.36-2.72-22.08Z" style="fill: rgb(69, 90, 100); transform-origin: 233.25px 457.695px;" id="elhlsk3ib0lm8" class="animable"></path><path d="M248.11,459.08a1.91,1.91,0,0,1,1.28,2.17,1.77,1.77,0,0,1-2.07,1.33,2,2,0,0,1-1.34-2.3,1.82,1.82,0,0,1,2.3-1.14" style="fill: rgb(224, 224, 224); transform-origin: 247.682px 460.83px;" id="elm373qdmwrf8" class="animable"></path><path d="M255.35,476.08l0-3.33-42.25.84s-2,.91-1.78,2.37Z" style="fill: rgb(38, 50, 56); transform-origin: 233.327px 474.415px;" id="el1kiy7jz83xl" class="animable"></path><path d="M234.12,462.28c0,.22,1.11.32,2.2,1.05s1.66,1.69,1.86,1.6-.13-1.41-1.45-2.27S234.07,462.07,234.12,462.28Z" style="fill: rgb(38, 50, 56); transform-origin: 236.176px 463.502px;" id="elfe7vba4dsan" class="animable"></path><path d="M229.4,464.31c-.05.22.9.61,1.65,1.57s1,2,1.19,2,.36-1.3-.6-2.47S229.4,464.09,229.4,464.31Z" style="fill: rgb(38, 50, 56); transform-origin: 230.893px 466.052px;" id="el5mkvkt4j5oj" class="animable"></path><path d="M226.73,470.17c.2,0,.5-1.09-.07-2.34s-1.6-1.74-1.69-1.55.55.86,1,1.89S226.51,470.14,226.73,470.17Z" style="fill: rgb(38, 50, 56); transform-origin: 225.976px 468.205px;" id="eldh12swjy03o" class="animable"></path><path d="M232.56,457c.09.2,1.1-.11,2.35,0s2.21.49,2.33.29-.82-1-2.29-1.08S232.45,456.79,232.56,457Z" style="fill: rgb(38, 50, 56); transform-origin: 234.901px 456.775px;" id="elmmahua2efn" class="animable"></path><path d="M228,241.78s-6.86,28.89-7.26,52.13-5.31,62.58-.21,103.36S226,459,226,459l29.38-.54s1.31-29.57.92-52.43-2.28-30.11,0-55.26,6-40.27,9.85-47.89c0,0,10.7-12.05,11.49-28.58a77,77,0,0,0-5.39-30.73Z" style="fill: rgb(69, 90, 100); transform-origin: 247.952px 350.39px;" id="el944ayz3r63" class="animable"></path><path d="M251,285.62c.43,1.26,8.13,52.49,13.74,75.09s11.85,28.58,12.95,47c1.26,21.15,7.53,50,7.53,50l27.73-.42s-4.16-41.93-8-72.48-9.49-68.21-8.62-79.51,3-25.25,0-41.08-9.55-20-9.55-20l-23.42-1Z" style="fill: rgb(69, 90, 100); transform-origin: 281.975px 350.465px;" id="elxgvc7cv8369" class="animable"></path><path d="M277,256.32a4.33,4.33,0,0,1,.43.79,15.15,15.15,0,0,1,.94,2.41,30.2,30.2,0,0,1,.91,9.36A59.5,59.5,0,0,1,277,282.67a43.48,43.48,0,0,1-3,7.76,55.39,55.39,0,0,1-5,7.49c-3.75,4.9-5.61,10.48-7,15.51a105.53,105.53,0,0,0-2.62,13.68c-.51,3.93-.81,7.12-1,9.33-.12,1.07-.21,1.91-.27,2.54a6,6,0,0,1-.13.89,4.76,4.76,0,0,1,0-.9c0-.63.1-1.48.16-2.55.16-2.21.41-5.41.87-9.36a100.3,100.3,0,0,1,2.5-13.75,64.32,64.32,0,0,1,2.62-7.88,36.23,36.23,0,0,1,1.92-4,42.1,42.1,0,0,1,2.51-3.84,54.5,54.5,0,0,0,5-7.42,42.63,42.63,0,0,0,3-7.65,59.75,59.75,0,0,0,2.38-13.67,31.51,31.51,0,0,0-.72-9.3,16.47,16.47,0,0,0-.83-2.41A7.89,7.89,0,0,1,277,256.32Z" style="fill: rgb(38, 50, 56); transform-origin: 268.646px 298.095px;" id="elze3iga18up" class="animable"></path><path d="M255.35,458.47c0,.15-6.57.38-14.68.53s-14.69.15-14.7,0,6.57-.38,14.69-.53S255.35,458.33,255.35,458.47Z" style="fill: rgb(38, 50, 56); transform-origin: 240.66px 458.737px;" id="el5wwbugr0w7d" class="animable"></path><path d="M237.13,143.57l12.63-1.39,31.93,6,21.77,12.52s-17.74,45.22-18.43,52.9,9.31,35.79,9.31,35.79a146.33,146.33,0,0,1-69.1,0s.72-27.44,2.39-40.77S237.13,143.57,237.13,143.57Z" style="fill: rgb(224, 224, 224); transform-origin: 264.35px 197.854px;" id="ell32y83n4jg" class="animable"></path><path d="M220.43,150.54l.72-8.36s6.88-4.37,8.56-7.6l-2.63-8s-12.77,4.3-15.68,7.47-5.08,14.45-5.08,14.45Z" style="fill: rgb(174, 116, 97); transform-origin: 218.015px 138.56px;" id="el1fqfyp5i2ay" class="animable"></path><path d="M225.11,120.22s-5.32,2-8.19,2.67c-2.37.57-5.46.71-6.28,2.55s-4.54,8.1-4.86,10.39.94,8,.94,8a2.91,2.91,0,0,0,3.1-3.19c0-3.38-.09-5.38-.09-5.38l5.33-5.89,12.29-2Z" style="fill: rgb(174, 116, 97); transform-origin: 216.539px 132.029px;" id="elx3rs4yev4va" class="animable"></path><path d="M220.8,125.53c-.31.28-5.56,2.71-7.2,4.84s-5,1.93-5.31,3.34,1.05,2.78,3.68,2.39,8.83-1.87,11.85-3.93a7.88,7.88,0,0,0,3.48-4.61" style="fill: rgb(174, 116, 97); transform-origin: 217.773px 130.849px;" id="eldzcyoe0rkxn" class="animable"></path><path d="M227.3,127.56a3.21,3.21,0,0,1-.46,1.47,8.61,8.61,0,0,1-2.74,3.16,20.46,20.46,0,0,1-5.63,2.6c-1.11.36-2.29.69-3.53,1-.61.15-1.25.28-1.89.4a10.06,10.06,0,0,1-2,.25,3.77,3.77,0,0,1-2-.56,2.09,2.09,0,0,1-1-1.83,1.43,1.43,0,0,1,.42-1,2.83,2.83,0,0,1,.86-.53c.58-.25,1.14-.42,1.67-.63a5.55,5.55,0,0,0,2.6-1.76,11.1,11.1,0,0,1,2.25-1.87,36.5,36.5,0,0,1,3.63-2.06l1-.49a1.87,1.87,0,0,1,.37-.16c.08.13-1.91,1.06-4.81,3a11.55,11.55,0,0,0-2.11,1.84,5.54,5.54,0,0,1-1.21,1.15,7.5,7.5,0,0,1-1.55.78c-.55.22-1.12.41-1.65.64a2.51,2.51,0,0,0-.71.44.89.89,0,0,0-.26.67,1.58,1.58,0,0,0,.79,1.38,3.3,3.3,0,0,0,1.75.47,10.48,10.48,0,0,0,1.91-.23l1.88-.4c1.22-.29,2.39-.6,3.49-.95a21.3,21.3,0,0,0,5.57-2.44,9.15,9.15,0,0,0,2.78-3C227.14,128.09,227.26,127.55,227.3,127.56Z" style="fill: rgb(111, 68, 57); transform-origin: 217.675px 130.995px;" id="el68fb6dn010n" class="animable"></path><path d="M210.74,136.27a4.54,4.54,0,0,1,.18,1.47,10.28,10.28,0,0,1-.31,3.58,4.27,4.27,0,0,1-1,1.79,2.79,2.79,0,0,1-1.47.84c-1,.2-1.53-.26-1.47-.29a3.73,3.73,0,0,0,1.38-.07,2.62,2.62,0,0,0,1.21-.8,4.44,4.44,0,0,0,.84-1.62,14.75,14.75,0,0,0,.44-3.43A3.71,3.71,0,0,1,210.74,136.27Z" style="fill: rgb(111, 68, 57); transform-origin: 208.813px 140.135px;" id="elxkdh8oujfdl" class="animable"></path><g id="eleb3o2ii0p4r"><g style="opacity: 0.3; transform-origin: 264.882px 321.501px;" class="animable"><path d="M232.59,313a14.26,14.26,0,0,0,13.79,17c4.42.06,8.6-1.91,13-2.58,6.33-1,12.71.83,19,1.77s14.12.46,19.06-3.61l-1.29-11.47Z" id="ellbwbohz3hvc" class="animable" style="transform-origin: 264.882px 321.501px;"></path></g></g><path d="M225.55,240.17c-3.85.13-5,9.26-3.05,11.8s5.32,3.49,8.5,4,6.49.67,9.28,2.26a276.29,276.29,0,0,0-8.07,50.71c-.23,3.51-.32,7.29,1.6,10.23,2.67,4.07,8.26,5.07,13.09,4.52,6.11-.69,12.15-3.23,18.21-2.17,3.18.56,6.11,2.1,9.25,2.89,7.33,1.84,15-.49,22.19-2.81,3.59-1.15,7.59-2.68,9-6.16a13.09,13.09,0,0,0,.5-5.78c-1.1-16.64-1.77-33.31-3.28-49.91-.9-10-4.33-14.59-7.82-17.94-4.44-4.26-3.19,1.42-14.09,1.8-18.86.66-36.38,1.48-55.3-.51" style="fill: rgb(146, 227, 169); transform-origin: 263.87px 282.622px;" id="elm72awgragah" class="animable"></path><path d="M287.28,274.61c.15,0,.54,9.7.88,21.67s.51,21.69.37,21.69-.54-9.7-.89-21.67S287.14,274.62,287.28,274.61Z" style="fill: rgb(38, 50, 56); transform-origin: 287.904px 296.29px;" id="el3m7zyqizuf1" class="animable"></path><path d="M295.29,307.17a4.52,4.52,0,0,1-.39-1.07c-.21-.69-.49-1.7-.81-3a85.69,85.69,0,0,1-1.83-10,88.47,88.47,0,0,1-.65-10.11c0-1.3,0-2.35.07-3.07a4.32,4.32,0,0,1,.12-1.13,5.57,5.57,0,0,1,.08,1.13c0,.83.06,1.86.1,3.06.1,2.58.32,6.15.8,10.06s1.14,7.42,1.67,9.95c.26,1.18.47,2.18.65,3A5.53,5.53,0,0,1,295.29,307.17Z" style="fill: rgb(38, 50, 56); transform-origin: 293.45px 292.98px;" id="elhemmylb1s3w" class="animable"></path><path d="M264.16,279.64a6.24,6.24,0,0,1-.08,1.38l-.4,3.77c-.34,3.17-.81,7.55-1.27,12.4s-.81,9.25-1.06,12.43c-.13,1.52-.23,2.78-.32,3.77a6.62,6.62,0,0,1-.18,1.38,7.92,7.92,0,0,1,0-1.39c0-.89.07-2.19.15-3.78.16-3.19.46-7.6.92-12.46s1-9.23,1.42-12.4c.22-1.58.41-2.86.56-3.74A8,8,0,0,1,264.16,279.64Z" style="fill: rgb(38, 50, 56); transform-origin: 262.494px 297.205px;" id="ell2vqo7dchts" class="animable"></path><path d="M267.14,314.43a4.56,4.56,0,0,1-.25-1c-.13-.68-.29-1.66-.47-2.88-.35-2.43-.75-5.82-1-9.56s-.37-7.16-.37-9.62c0-1.23,0-2.23,0-2.92a4,4,0,0,1,.1-1.07,4,4,0,0,1,.1,1.07q.06,1.2.12,2.91c.1,2.46.25,5.85.52,9.59s.62,7.11.88,9.56c.12,1.13.22,2.1.3,2.89A3.78,3.78,0,0,1,267.14,314.43Z" style="fill: rgb(38, 50, 56); transform-origin: 266.098px 300.905px;" id="el2jm7bdcvprr" class="animable"></path><g id="elsg6wcmhdat"><g style="opacity: 0.3; transform-origin: 263.681px 297.845px;" class="animable"><path d="M266.67,311.9c-1.68-10-1.63-21-1.25-31.22a1.73,1.73,0,0,0-.86-1.58l-.4-.24a217.72,217.72,0,0,0-3.66,31.05c-.08,2.2-.05,4.58,1.73,6.15a2.85,2.85,0,0,0,3.37.39C267.15,315.48,267,313.53,266.67,311.9Z" id="elfx2ilrybu4l" class="animable" style="transform-origin: 263.681px 297.845px;"></path></g></g><g id="elbgy77crbi6p"><g style="opacity: 0.3; transform-origin: 291.132px 297.489px;" class="animable"><path d="M294.91,310.18a111.56,111.56,0,0,0-2.29-14.95q-1.55-7.67-3.07-15.34a2.42,2.42,0,0,0-.67-1.47c-.43-.34-1.24-.2-1.32.34l-.28.3c0,10.4.66,21.2.64,31.59a10.68,10.68,0,0,0,.43,3.7,3.56,3.56,0,0,0,2.65,2.39,3.51,3.51,0,0,0,3.42-2.24A9.14,9.14,0,0,0,294.91,310.18Z" id="elu9t8034y6d" class="animable" style="transform-origin: 291.132px 297.489px;"></path></g></g><path d="M239.09,244.24a3.67,3.67,0,0,1,1.51,1.87,7.85,7.85,0,0,1,.66,2.57,17.27,17.27,0,0,1,0,3.2,52.41,52.41,0,0,1-.81,5.73,9.1,9.1,0,0,1-.62,2.31,13.6,13.6,0,0,1,.26-2.38c.2-1.45.46-3.47.65-5.7a12.21,12.21,0,0,0-.42-5.58A10.31,10.31,0,0,0,239.09,244.24Z" style="fill: rgb(38, 50, 56); transform-origin: 240.212px 252.08px;" id="el5oi39hngbg3" class="animable"></path><path d="M277.49,256.83c-.09,0,0-.86-.16-2.21a16.63,16.63,0,0,0-1.34-5.08,16.82,16.82,0,0,0-2.9-4.4,18.2,18.2,0,0,1-1.54-1.59,6.3,6.3,0,0,1,1.8,1.34,14.29,14.29,0,0,1,4.35,9.71A6.28,6.28,0,0,1,277.49,256.83Z" style="fill: rgb(38, 50, 56); transform-origin: 274.636px 250.19px;" id="elrx25dao1pui" class="animable"></path><path d="M281.08,249.59a23.08,23.08,0,0,0-1.62-3.2,21.9,21.9,0,0,0-2.5-2.57,5.25,5.25,0,0,1,2.92,2.27A5.18,5.18,0,0,1,281.08,249.59Z" style="fill: rgb(38, 50, 56); transform-origin: 279.022px 246.705px;" id="elkj0cbwb5ci" class="animable"></path><path d="M302,157.16s6.23,40.81,6.07,49.5-4.8,14.48-12.36,13.7-12.47-21.58-12.47-21.58Z" style="fill: rgb(224, 224, 224); transform-origin: 295.657px 188.795px;" id="elajgzwp5b7cr" class="animable"></path><g id="elep3kc7sewn7"><g style="opacity: 0.3; transform-origin: 294.061px 192.412px;" class="animable"><path d="M301.06,179.09a3.77,3.77,0,0,0-4.65-1.61l-9.93,30.13A11.65,11.65,0,0,0,290.8,202a48.44,48.44,0,0,1,2.94-6.52c.79-1.25,1.77-2.36,2.47-3.66a5.16,5.16,0,0,0,.56-4.23,8.68,8.68,0,0,0,4.1-3.38A5.2,5.2,0,0,0,301.06,179.09Z" id="elw3jz28kgt5d" class="animable" style="transform-origin: 294.061px 192.412px;"></path></g></g><g id="elrbqt1sp75u8"><g style="opacity: 0.3; transform-origin: 279.645px 176.123px;" class="animable"><path d="M293.92,162.33c-.66,8.48-1.33,17-3.29,25.26-.83,3.45-2.08,7.14-5.06,9.08-3.9,2.53-9.48.86-12.49-2.69s-3.92-8.43-4-13.09c-.07-2.72.06-5.61-1.29-8-.59-1-1.44-1.93-1.93-3-1.18-2.63,0-5.67,1.15-8.31l15-7.22Z" id="ele1n9v61irkr" class="animable" style="transform-origin: 279.645px 176.123px;"></path></g></g><path d="M297.69,176.19c.14.05-2.64,8.28-6.2,18.38s-6.57,18.24-6.7,18.2,2.64-8.28,6.2-18.38S297.56,176.15,297.69,176.19Z" style="fill: rgb(38, 50, 56); transform-origin: 291.24px 194.48px;" id="elc5owzat8kr" class="animable"></path><g id="eltiiyaxgivr"><g style="opacity: 0.3; transform-origin: 280.08px 222.63px;" class="animable"><path d="M285.49,222.3a10.71,10.71,0,0,0-4.22-3.38c-1.79-.84-3.66-1.51-5.38-2.5l-3.56,1.05c5.1,3.27,10.7,7.68,15.5,11.37C287.83,228.84,286.71,223.86,285.49,222.3Z" id="elhfnt9n2zml" class="animable" style="transform-origin: 280.08px 222.63px;"></path></g></g><path d="M247.16,209.64s-.73,1.67,1.72,2.47S261.34,215,261.34,215l16.72,5.13L286.54,210l-5-5.56s-4.28-8.15-7.74-9.76a45.17,45.17,0,0,0-7.72-2.56s-1.27,1.31,1.88,3.42,1.12,3.46,1.12,3.46-17.28-3.24-18.3-2-.28,2-.28,2-3.44-.15-4.15.59-.12,3.07-.12,3.07-2.09,1.79-.42,3.4,13.48,2.9,13.48,2.9Z" style="fill: rgb(255, 191, 157); transform-origin: 265.851px 206.125px;" id="elsfycf1ns9wg" class="animable"></path><path d="M277.78,220l9.05,5s6.48-8.47-.29-15.06Z" style="fill: rgb(255, 191, 157); transform-origin: 283.703px 217.47px;" id="el5ex4fs4qbhg" class="animable"></path><path d="M264.11,209.3a23.75,23.75,0,0,1-2.47-.28,22.91,22.91,0,0,1-2.49-.05,5.17,5.17,0,0,1,5,.33Z" style="fill: rgb(255, 154, 108); transform-origin: 261.65px 208.889px;" id="el9jwwn8zuggk" class="animable"></path><path d="M260.88,205.19c0,.14-3.24-.57-7.22-1.26s-7.24-1.13-7.22-1.28a8.3,8.3,0,0,1,2.15.07c1.33.12,3.16.35,5.16.7s3.79.75,5.08,1.09A8.07,8.07,0,0,1,260.88,205.19Z" style="fill: rgb(255, 154, 108); transform-origin: 253.66px 203.909px;" id="elsbhnr3i95w" class="animable"></path><path d="M265,201.88c0,.14-3.29-.78-7.35-1.6s-7.41-1.24-7.39-1.4a9.14,9.14,0,0,1,2.21.08c1.36.13,3.24.4,5.28.81s3.88.91,5.18,1.31A8.22,8.22,0,0,1,265,201.88Z" style="fill: rgb(255, 154, 108); transform-origin: 257.63px 200.371px;" id="el1w59pu6nvro" class="animable"></path><g id="eln7kd8uxga4"><g style="opacity: 0.3; transform-origin: 233.765px 229.475px;" class="animable"><path d="M257.9,235.55a145,145,0,0,0-42.35-15.43l-7.46,1.67c2,3.06,5.87,4.35,9.51,4.81s7.4.33,10.88,1.49,6.25,3.4,9.32,5.23a39.49,39.49,0,0,0,19,5.51c1.09,0,2.51-.27,2.63-1.35C259.54,236.61,258.67,236,257.9,235.55Z" id="elvnpglladt6i" class="animable" style="transform-origin: 233.765px 229.475px;"></path></g></g><path d="M217.16,168.42s-8.52,24.85-9.77,28.15,33,17.82,33,17.82l-4.07,13.06s-39.34-7.84-43.05-10-5.84-6.43-6.23-13.69,7.48-44.6,10.8-46.79S217.16,168.42,217.16,168.42Z" style="fill: rgb(255, 191, 157); transform-origin: 213.708px 192.091px;" id="elwj2rxa00sd8" class="animable"></path><path d="M187.87,183.41s6-31.91,14.63-37.36l14.95,18.27L212.9,192.1Z" style="fill: rgb(69, 90, 100); transform-origin: 202.66px 169.075px;" id="elbzsama08tb" class="animable"></path><path d="M262,210.05s-9.29-.38-12.29.19-9.78,3-10.09,2.95-9.95-3.56-9.95-3.56l-3,15.75a55.74,55.74,0,0,1,9.46,3.48c3.36,1.83,8,3.85,11.53,5.3,3.27,1.36,11.53,4.74,13,4.14s.92-2.24-.18-2.65-5.93-2.92-5.93-2.92l8,1.08s6,.41,5.57-1.71c-.34-1.77-7-2.41-7-2.41l-5.83-1.1s14.8-.4,15.5-1.82-.43-2.51-2.66-2.72c-1-.09-11.68-.35-11.68-.35s12.83-2.19,14.33-4.12a1.49,1.49,0,0,0-.42-1.78c-1.14-.83-3.36-.3-3.92-.21-2,.3-6.28,1.27-8.92.37a9.48,9.48,0,0,1-4.37-2.89l7-1.28S263,212.14,262,210.05Z" style="fill: rgb(255, 191, 157); transform-origin: 248.833px 224px;" id="elh0w4ua5pr49" class="animable"></path><path d="M253.2,215.07a.92.92,0,0,1,.31-.15,7.3,7.3,0,0,1,1-.27c.85-.22,2.14-.24,3.62-.56a8.72,8.72,0,0,0,2.29-.92,3.45,3.45,0,0,0,1-.87,4,4,0,0,0,.38-.59,2,2,0,0,0,.25-.62,1.57,1.57,0,0,0-.07-.65c-.08-.21-.11-.22-.39-.23h-1.64l-3.46,0a63.67,63.67,0,0,0-6.65.23,31.28,31.28,0,0,0-5.28,1.15c-1.48.46-2.66.89-3.47,1.19a8.83,8.83,0,0,1-1.29.42,5.73,5.73,0,0,1,1.21-.61c.8-.35,2-.84,3.44-1.35a28.52,28.52,0,0,1,5.34-1.28,57.13,57.13,0,0,1,6.7-.27h5.11a1,1,0,0,1,.51.11.8.8,0,0,1,.33.45,1.91,1.91,0,0,1,.09.88,4,4,0,0,1-1.89,2.39,8.55,8.55,0,0,1-2.43.91c-1.57.29-2.82.25-3.67.4S253.21,215.12,253.2,215.07Z" style="fill: rgb(255, 154, 108); transform-origin: 251.173px 212.38px;" id="eld2cpezixo78" class="animable"></path><path d="M256.62,223.52c.05,0-.08.28-.42.51a2.64,2.64,0,0,1-3-.09c-.33-.26-.44-.49-.39-.53s.81.51,1.9.53A7.29,7.29,0,0,0,256.62,223.52Z" style="fill: rgb(255, 154, 108); transform-origin: 254.714px 223.931px;" id="el1syssnc7fod" class="animable"></path><path d="M255.23,228.4c.1.1-.54.72-1.55.63s-1.55-.8-1.43-.88.67.31,1.47.36S255.14,228.28,255.23,228.4Z" style="fill: rgb(255, 154, 108); transform-origin: 253.737px 228.589px;" id="elen3zc3yhms" class="animable"></path><path d="M254.38,232.74c0,.14-.62.29-1.31-.05s-1-.92-.85-1,.52.26,1.08.52S254.38,232.59,254.38,232.74Z" style="fill: rgb(255, 154, 108); transform-origin: 253.281px 232.287px;" id="elgycpsjhbk" class="animable"></path><path d="M204.71,189.07s16.13-33,22.19-40.12,16.33-5.82,17.06-5.39-.64,24.48-.64,24.48-14.19,32.09-29.39,45.11c-5.59,4.79-22.79.34-18.45-14.22C197.35,192.65,204.71,189.07,204.71,189.07Z" style="fill: rgb(224, 224, 224); transform-origin: 219.48px 179.091px;" id="elyoi5jxuxacs" class="animable"></path><path d="M205.12,148.14,197,178.74c-1.68,6.39-6.08,20.83-1.44,28.87l.35-4.43,20.39-29.13,7.76-23.15Z" style="fill: rgb(224, 224, 224); transform-origin: 208.778px 177.875px;" id="el6abb4xhftj" class="animable"></path><path d="M223.58,153.34a9.88,9.88,0,0,1-.69,1.5c-.46.95-1.17,2.31-2,4-1.76,3.36-4.25,8-7,13s-5.26,9.67-7,13c-.86,1.61-1.56,3-2.1,4a9.94,9.94,0,0,1-.82,1.43,8.75,8.75,0,0,1,.64-1.52c.44-1,1.1-2.34,2-4,1.7-3.39,4.14-8,6.91-13.1l7.15-13c.89-1.59,1.63-2.91,2.2-3.91A9.29,9.29,0,0,1,223.58,153.34Z" style="fill: rgb(38, 50, 56); transform-origin: 213.775px 171.805px;" id="elehycawajn6l" class="animable"></path><path d="M242.42,176.19a3.13,3.13,0,0,1-.51.85l-1.53,2.21-5.15,7.19-5.16,7.19a30.39,30.39,0,0,1-2.18,2.94,3.59,3.59,0,0,1,.45-.88c.32-.54.81-1.32,1.43-2.27,1.23-1.9,3-4.48,5-7.29s3.9-5.31,5.29-7.1c.69-.9,1.26-1.62,1.66-2.11A3.91,3.91,0,0,1,242.42,176.19Z" style="fill: rgb(38, 50, 56); transform-origin: 235.155px 186.38px;" id="elxf5km5cilmh" class="animable"></path><path d="M246.08,158.38c-.09,0,.21-1.26.24-3.28a13.07,13.07,0,0,0-2-7.48,9.1,9.1,0,0,0-6.44-3.92,10.17,10.17,0,0,0-3.23.32,2.45,2.45,0,0,1,.81-.38,6.45,6.45,0,0,1,2.44-.31,9.16,9.16,0,0,1,6.86,4,12.74,12.74,0,0,1,1.9,7.78,13.53,13.53,0,0,1-.34,2.42A2.66,2.66,0,0,1,246.08,158.38Z" style="fill: rgb(38, 50, 56); transform-origin: 240.675px 150.848px;" id="elnu3346o37a" class="animable"></path><g id="elvi8321z293d"><g style="opacity: 0.3; transform-origin: 235.255px 188.095px;" class="animable"><path d="M229.08,195.32l.06,2.87A32.12,32.12,0,0,0,241.43,178,106.69,106.69,0,0,0,229.08,195.32Z" id="el83sieps7u2" class="animable" style="transform-origin: 235.255px 188.095px;"></path></g></g><g id="elg0l4cemclrh"><g style="opacity: 0.3; transform-origin: 210.645px 177.31px;" class="animable"><path d="M204.5,188.76l12.29-22.9A30.74,30.74,0,0,0,204.5,188.76Z" id="elk298p5bqgvr" class="animable" style="transform-origin: 210.645px 177.31px;"></path></g></g><path d="M313,457.28a4.42,4.42,0,0,1-1.09.11l-3,.1-9.8.28c-3.83.09-7.3.14-9.81.12-1.26,0-2.27,0-3-.06a4.11,4.11,0,0,1-1.09-.1,4.11,4.11,0,0,1,1.09-.1l3-.11,9.8-.27c3.82-.1,7.29-.14,9.8-.13,1.26,0,2.27,0,3,.06A4.84,4.84,0,0,1,313,457.28Z" style="fill: rgb(38, 50, 56); transform-origin: 299.105px 457.506px;" id="elhl289l7urqd" class="animable"></path><path d="M257,86.94c-3.92,5.37-5,8.35-8.47,16-.44,1-3.79,9.5-4.24,12.36a12.39,12.39,0,0,0,3,9.39c1.12,1.15,4.41,4.08,4.41,4.08l-2,13.44a58.35,58.35,0,0,0,26.19,6s5.52-22.28,7.76-32.55Z" style="fill: rgb(174, 116, 97); transform-origin: 263.939px 117.576px;" id="el2rplq4lk726" class="animable"></path><path d="M252.26,98.37a64.12,64.12,0,0,1,5.53-12.81c2.44-4,5.87-7.49,10.22-9.18,3.71-1.45,7.63-.81,11.56-.15A24.14,24.14,0,0,1,294,84.5a28.46,28.46,0,0,1,6.17,20.58,26.79,26.79,0,0,1-.73,3.86l-2,7.72-18.29,17.49c-5.66,3.27-12.65,1-16.59-4.18s-6.88-14.89-5.22-21.22a31.1,31.1,0,0,0,1.2-5.18,6.22,6.22,0,0,0-1.51-4.93A3.53,3.53,0,0,0,252.26,98.37Z" style="fill: rgb(38, 50, 56); transform-origin: 276.28px 105.588px;" id="eltgd1b7e85wq" class="animable"></path><path d="M250.1,107.05s.1.29.4.74a5.63,5.63,0,0,0,1.63,1.65,2.93,2.93,0,0,0,1.61.44,3.45,3.45,0,0,0,1.81-.62,8.86,8.86,0,0,0,2.68-3.24,7.38,7.38,0,0,0,.85-4.13,5.2,5.2,0,0,0-1.5-3.11,4,4,0,0,0-2-1.12,1.48,1.48,0,0,0-.84,0,5.18,5.18,0,0,1,2.54,1.45,4.91,4.91,0,0,1,1.24,2.85,7,7,0,0,1-.84,3.77,8.45,8.45,0,0,1-2.44,3,2.6,2.6,0,0,1-2.86.28,6.63,6.63,0,0,1-1.65-1.41C250.34,107.24,250.14,107,250.1,107.05Z" style="fill: rgb(111, 68, 57); transform-origin: 254.604px 103.74px;" id="elk8x455lhvo" class="animable"></path><path d="M252.93,105.77c0,.08.33.19.87,0a2.39,2.39,0,0,0,1.52-1.47,2.37,2.37,0,0,0-.29-2.1c-.32-.45-.65-.58-.7-.51s.14.31.3.73a2.45,2.45,0,0,1,.07,1.67,2.41,2.41,0,0,1-1.08,1.26C253.23,105.61,252.92,105.67,252.93,105.77Z" style="fill: rgb(111, 68, 57); transform-origin: 254.187px 103.774px;" id="elrsd0z854h8h" class="animable"></path><path d="M282,109.16a11,11,0,0,1,13.49.31c1.81,1.59,3.07,4.09,2.43,6.41l-1.4,1.06a16.67,16.67,0,0,0-10.77,4.85,16.86,16.86,0,0,1-2.7,2.51,3.42,3.42,0,0,1-3.49.31,4.08,4.08,0,0,1-1.55-2.35A12.19,12.19,0,0,1,282,109.16Z" style="fill: rgb(146, 227, 169); transform-origin: 287.776px 115.975px;" id="elyknrpdqdav" class="animable"></path><path d="M266.24,163.5a13.06,13.06,0,0,1,2.17-5.69c2.29-3.81,5-7.37,7.08-11.28s5.12-8.75,4.73-13.17c-.48-5.59-.56-13.48,0-15.92.78-3.37,2.74-6.2,6-7.33s4.23-.75,7.58.11c7.38,3.08,11,9.63,12.52,17.47s2.31,17.19-.45,24.69c-1.39,3.78-3.12,7.78-2.12,11.67a43.15,43.15,0,0,0,1.92,4.69,6.36,6.36,0,0,1,.21,4.93c-.72,1.53-2.8,2.46-4.19,1.51.37,2.37.47,4.91-.61,7.06s-3.65,3.69-5.92,2.91c0,3.79-1.32,7.79-4.33,10.1-4,3.05-10,2.22-13.82-1s-5.53-8.43-5.72-13.42c-.18-4.62.8-9.18,1.87-13.69a3.48,3.48,0,0,1-4.22,1.49C267.06,167.8,266.11,165.55,266.24,163.5Z" style="fill: rgb(38, 50, 56); transform-origin: 286.965px 153.279px;" id="el0qmys1eeumg" class="animable"></path><path d="M249.8,108.49c.91-1.26,3.18-1.83,4.36-.83a3.24,3.24,0,0,1,.51,4.2,3.12,3.12,0,0,1-4.13.73A3,3,0,0,1,249.8,108.49Z" style="fill: rgb(69, 90, 100); transform-origin: 252.257px 110.11px;" id="elrbn7nsz3vm" class="animable"></path><path d="M280.74,110.53s-.14,0-.39,0-.63-.13-1.1-.27a24,24,0,0,1-3.9-1.48A25.86,25.86,0,0,1,260.7,86.84a22.76,22.76,0,0,1,.11-4.17c.05-.49.13-.86.17-1.12a1.59,1.59,0,0,1,.1-.38,48.49,48.49,0,0,0,0,5.64,26.48,26.48,0,0,0,14.46,21.59A47.82,47.82,0,0,0,280.74,110.53Z" style="fill: rgb(69, 90, 100); transform-origin: 270.696px 95.85px;" id="el4l3yiysyhr" class="animable"></path><path d="M278.63,113.11a3.72,3.72,0,0,1-.9.17,16.85,16.85,0,0,1-2.49.11,22.1,22.1,0,0,1-3.68-.39,23,23,0,0,1-8.38-3.39,21.88,21.88,0,0,1-2.92-2.28,16.06,16.06,0,0,1-1.71-1.81c-.37-.46-.56-.72-.53-.74s.91.93,2.49,2.28a25.26,25.26,0,0,0,14.75,6C277.33,113.15,278.62,113,278.63,113.11Z" style="fill: rgb(69, 90, 100); transform-origin: 268.323px 109.089px;" id="elc27t90haw6t" class="animable"></path><path d="M290.84,82.09a2.34,2.34,0,0,1,.81.69A7,7,0,0,1,293,85.35a16.26,16.26,0,0,1,.58,4.24,40.3,40.3,0,0,1-2.14,14.49c-.39,1.15-.77,2.06-1.05,2.68a4.23,4.23,0,0,1-.49.93c-.08,0,.5-1.42,1.19-3.72a47.3,47.3,0,0,0,1.82-9.2,46.67,46.67,0,0,0,.19-5.17,16.74,16.74,0,0,0-.46-4.15A7.84,7.84,0,0,0,290.84,82.09Z" style="fill: rgb(69, 90, 100); transform-origin: 291.749px 94.89px;" id="eljbpic0wuzd" class="animable"></path><path d="M276.66,144.24a24.11,24.11,0,0,0,2.46-5.06,21.47,21.47,0,0,0,.94-6,71.25,71.25,0,0,0-.31-7.51,32.89,32.89,0,0,1,.12-7.59,10.88,10.88,0,0,1,2.53-5.66,9.73,9.73,0,0,1,3.47-2.34c.46-.18.82-.31,1.07-.38s.39-.1.39-.08a13.83,13.83,0,0,1-1.38.64,10.52,10.52,0,0,0-3.27,2.41,10.75,10.75,0,0,0-2.34,5.49,34.26,34.26,0,0,0-.07,7.47,68.76,68.76,0,0,1,.27,7.57,20.83,20.83,0,0,1-1.07,6.11,16.08,16.08,0,0,1-1.86,3.74,11.18,11.18,0,0,1-.68.91C276.76,144.15,276.67,144.25,276.66,144.24Z" style="fill: rgb(69, 90, 100); transform-origin: 281.995px 126.927px;" id="elsncdrgjgtc" class="animable"></path><path d="M276,167.82a2.38,2.38,0,0,1,.07-.56c.06-.36.17-.89.33-1.57a46,46,0,0,1,1.79-5.66c.89-2.34,2.11-5.06,3.55-8s3.06-6.22,4.53-9.73a47.31,47.31,0,0,0,3.14-10.19,29.34,29.34,0,0,0,.27-8.67,22.13,22.13,0,0,0-1.47-5.67c-.52-1.29-.92-2-.87-2a2,2,0,0,1,.31.47,13.11,13.11,0,0,1,.75,1.43,21.37,21.37,0,0,1,1.65,5.7,29.19,29.19,0,0,1-.16,8.8,46.63,46.63,0,0,1-3.14,10.31c-1.48,3.53-3.13,6.77-4.58,9.73s-2.71,5.66-3.64,8a56.24,56.24,0,0,0-1.93,5.57C276.16,167.08,276,167.83,276,167.82Z" style="fill: rgb(69, 90, 100); transform-origin: 283.154px 141.795px;" id="el4kygsseb1cp" class="animable"></path><path d="M291.93,192.46s-.17-.18-.46-.55a13.52,13.52,0,0,1-1.15-1.72,19.4,19.4,0,0,1-2.29-7.25,30.39,30.39,0,0,1,.93-11.23,71.21,71.21,0,0,1,5.2-12.79,104.17,104.17,0,0,0,5.58-12.56,34.85,34.85,0,0,0,1.95-11,22,22,0,0,0-1.23-7.4,17.31,17.31,0,0,0-.79-1.89,3.28,3.28,0,0,1-.28-.67,4.15,4.15,0,0,1,.37.62,13.5,13.5,0,0,1,.89,1.87,21.1,21.1,0,0,1,1.41,7.47,34.68,34.68,0,0,1-1.86,11.12,102.91,102.91,0,0,1-5.57,12.63,73.22,73.22,0,0,0-5.21,12.69,30.54,30.54,0,0,0-1,11.06,20.13,20.13,0,0,0,2.1,7.19,16.16,16.16,0,0,0,1.05,1.76A4.67,4.67,0,0,1,291.93,192.46Z" style="fill: rgb(69, 90, 100); transform-origin: 294.963px 158.93px;" id="elda264w55v78" class="animable"></path><path d="M287.72,188.4a4.43,4.43,0,0,1-.4-.74c-.12-.25-.29-.54-.44-.92s-.31-.81-.49-1.3a23.37,23.37,0,0,1-1.06-8.75,43.27,43.27,0,0,1,2.93-12.77c1.73-4.63,4.21-9.46,6.34-14.71a57.34,57.34,0,0,0,2.57-7.84,33.26,33.26,0,0,0,.92-7.59A42.3,42.3,0,0,0,295.91,121a81,81,0,0,0-3.2-8.2l-1-2.18a5.26,5.26,0,0,1-.32-.77,4.46,4.46,0,0,1,.42.72c.26.49.62,1.21,1.08,2.15a71.34,71.34,0,0,1,3.36,8.17,41.54,41.54,0,0,1,2.31,12.89,33.66,33.66,0,0,1-.9,7.71,56.12,56.12,0,0,1-2.59,7.91c-2.14,5.28-4.63,10.11-6.38,14.69a43.68,43.68,0,0,0-3,12.62,24.06,24.06,0,0,0,.88,8.67c.17.49.32.92.45,1.31s.28.68.39.93A6.09,6.09,0,0,1,287.72,188.4Z" style="fill: rgb(69, 90, 100); transform-origin: 291.917px 149.125px;" id="elmmb12giowho" class="animable"></path></g><defs>     <filter id="active" height="200%">         <feMorphology in="SourceAlpha" result="DILATED" operator="dilate" radius="2"></feMorphology>                <feFlood flood-color="#32DFEC" flood-opacity="1" result="PINK"></feFlood>        <feComposite in="PINK" in2="DILATED" operator="in" result="OUTLINE"></feComposite>        <feMerge>            <feMergeNode in="OUTLINE"></feMergeNode>            <feMergeNode in="SourceGraphic"></feMergeNode>        </feMerge>    </filter>    <filter id="hover" height="200%">        <feMorphology in="SourceAlpha" result="DILATED" operator="dilate" radius="2"></feMorphology>                <feFlood flood-color="#ff0000" flood-opacity="0.5" result="PINK"></feFlood>        <feComposite in="PINK" in2="DILATED" operator="in" result="OUTLINE"></feComposite>        <feMerge>            <feMergeNode in="OUTLINE"></feMergeNode>            <feMergeNode in="SourceGraphic"></feMergeNode>        </feMerge>            <feColorMatrix type="matrix" values="0   0   0   0   0                0   1   0   0   0                0   0   0   0   0                0   0   0   1   0 "></feColorMatrix>    </filter></defs></svg>